<svg aria-hidden="true" style="position: absolute; width: 0; height: 0; overflow: hidden;" version="1.1" xmlns="http://www.w3.org/2000/svg" xmlns:xlink="http://www.w3.org/1999/xlink">
<defs>
<symbol id="close" viewBox="0 0 32 32">
<path d="M17.254 16l7.369-7.369c0.146-0.17 0.222-0.389 0.213-0.613s-0.101-0.436-0.26-0.594-0.37-0.251-0.594-0.26c-0.224-0.009-0.442 0.067-0.613 0.213l-7.369 7.369-7.369-7.378c-0.167-0.167-0.394-0.261-0.631-0.261s-0.464 0.094-0.631 0.261c-0.167 0.167-0.261 0.394-0.261 0.631s0.094 0.464 0.261 0.631l7.378 7.369-7.378 7.369c-0.093 0.080-0.169 0.178-0.222 0.288s-0.083 0.23-0.088 0.353 0.016 0.244 0.061 0.358c0.045 0.114 0.112 0.218 0.199 0.304s0.19 0.154 0.304 0.199 0.236 0.065 0.359 0.061c0.122-0.005 0.243-0.035 0.353-0.088s0.208-0.129 0.288-0.222l7.378-7.369 7.369 7.369c0.17 0.146 0.389 0.222 0.613 0.213s0.436-0.101 0.594-0.26 0.251-0.371 0.26-0.594c0.009-0.224-0.067-0.442-0.213-0.613l-7.369-7.369z"></path>
</symbol>
<symbol id="arrow" viewBox="0 0 32 32">
<path d="M17.751 16.667l-6.788-6.741 1.939-1.926 8.728 8.667-8.727 8.667-1.939-1.926 6.788-6.741z"></path>
</symbol>
<symbol id="accent-heart" viewBox="0 0 35 32">
<path fill="#fd5103" style="fill: var(--color1, #fd5103)" d="M17.684 32l-2.564-2.302c-9.107-8.144-15.12-13.515-15.12-20.107 0-5.371 4.28-9.591 9.726-9.591 3.077 0 6.030 1.413 7.958 3.645 1.928-2.232 4.881-3.645 7.958-3.645 5.447 0 9.726 4.22 9.726 9.591 0 6.592-6.013 11.963-15.12 20.124l-2.564 2.284z"></path>
</symbol>
<symbol id="heart" viewBox="0 0 34 32">
<path fill="#fd5103" style="fill: var(--color1, #fd5103)" d="M24.806 2.933c0.002 0 0.005 0 0.008 0 1.835 0 3.493 0.753 4.685 1.966l0.001 0.001c1.216 1.234 1.967 2.929 1.967 4.8s-0.751 3.566-1.968 4.801l0.001-0.001-12.433 12.589-12.433-12.587c-1.216-1.234-1.967-2.929-1.967-4.8s0.751-3.566 1.968-4.801l-0.001 0.001c1.194-1.215 2.855-1.968 4.692-1.968s3.498 0.753 4.691 1.967l0.001 0.001 3.049 3.119 3.036-3.095c1.189-1.229 2.853-1.993 4.695-1.993 0.003 0 0.006 0 0.009 0h-0zM24.806 0.533c-0.002 0-0.005 0-0.008 0-2.506 0-4.772 1.029-6.399 2.687l-0.001 0.001-1.331 1.344-1.333-1.344c-1.631-1.658-3.9-2.685-6.407-2.685s-4.776 1.027-6.406 2.684l-0.001 0.001c-1.641 1.67-2.655 3.963-2.655 6.492s1.013 4.821 2.656 6.493l-0.001-0.001 14.148 14.327 14.146-14.327c1.641-1.671 2.655-3.963 2.655-6.492s-1.013-4.821-2.656-6.493l0.001 0.001c-1.631-1.659-3.898-2.687-6.406-2.688h-0z"></path>
</symbol>
<symbol id="burger-menu" viewBox="0 0 32 32">
<path d="M3.429 8c0-0.631 0.512-1.143 1.143-1.143v0h22.857c0.631 0 1.143 0.512 1.143 1.143s-0.512 1.143-1.143 1.143v0h-22.857c-0.631 0-1.143-0.512-1.143-1.143v0zM3.429 16c0-0.631 0.512-1.143 1.143-1.143v0h22.857c0.631 0 1.143 0.512 1.143 1.143s-0.512 1.143-1.143 1.143v0h-22.857c-0.631 0-1.143-0.512-1.143-1.143v0zM4.571 22.857c-0.631 0-1.143 0.512-1.143 1.143s0.512 1.143 1.143 1.143v0h22.857c0.631 0 1.143-0.512 1.143-1.143s-0.512-1.143-1.143-1.143v0h-22.857z"></path>
</symbol>
<symbol id="search" viewBox="0 0 31 32">
<path d="M12.8 23.68c2.272-0 4.478-0.761 6.268-2.161l5.627 5.627 1.81-1.81-5.627-5.627c1.4-1.79 2.161-3.997 2.162-6.269 0-5.646-4.594-10.24-10.24-10.24s-10.24 4.594-10.24 10.24c0 5.646 4.594 10.24 10.24 10.24zM12.8 5.76c4.236 0 7.68 3.444 7.68 7.68s-3.444 7.68-7.68 7.68c-4.236 0-7.68-3.444-7.68-7.68s3.444-7.68 7.68-7.68z"></path>
</symbol>
<symbol id="shevron-down" viewBox="0 0 32 32">
<path d="M7.791 12.79l7.543 7.543 7.543-7.543-0.943-0.943-6.6 6.6-6.6-6.6-0.943 0.943z"></path>
<path d="M7.791 12.792l7.543 7.543 7.543-7.543-0.943-0.943-6.6 6.6-6.6-6.6-0.943 0.943z"></path>
</symbol>
<symbol id="shevron-down-big" viewBox="0 0 32 32">
<path d="M16.724 21.24l10.62-11.146c0.177-0.186 0.276-0.433 0.276-0.69s-0.099-0.504-0.276-0.69l-0.012-0.012c-0.086-0.090-0.189-0.163-0.304-0.212s-0.238-0.075-0.363-0.075c-0.125 0-0.248 0.025-0.363 0.075s-0.218 0.121-0.304 0.212l-10 10.496-9.996-10.496c-0.086-0.090-0.189-0.163-0.304-0.212s-0.238-0.075-0.363-0.075c-0.125 0-0.248 0.025-0.363 0.075s-0.218 0.121-0.304 0.212l-0.012 0.012c-0.177 0.186-0.276 0.433-0.276 0.69s0.099 0.504 0.276 0.69l10.62 11.146c0.093 0.098 0.206 0.176 0.33 0.229s0.258 0.081 0.394 0.081c0.135 0 0.269-0.027 0.394-0.081s0.237-0.131 0.33-0.229z"></path>
</symbol>
</defs>
</svg>
